<svg id="visual" viewBox="0 0 1920 100" width="1920" height="100" xmlns="http://www.w3.org/2000/svg" xmlns:xlink="http://www.w3.org/1999/xlink" version="1.1"><rect x="0" y="0" width="1920" height="100" fill="#ffffff"></rect><path d="M0 53L15.2 54.5C30.3 56 60.7 59 91.2 61.5C121.7 64 152.3 66 182.8 69.7C213.3 73.3 243.7 78.7 274.2 75.3C304.7 72 335.3 60 365.8 60.5C396.3 61 426.7 74 457.2 73.8C487.7 73.7 518.3 60.3 548.8 51.5C579.3 42.7 609.7 38.3 640 44C670.3 49.7 700.7 65.3 731.2 66.3C761.7 67.3 792.3 53.7 822.8 48.2C853.3 42.7 883.7 45.3 914.2 45.7C944.7 46 975.3 44 1005.8 45.5C1036.3 47 1066.7 52 1097.2 53.7C1127.7 55.3 1158.3 53.7 1188.8 57.7C1219.3 61.7 1249.7 71.3 1280 71.8C1310.3 72.3 1340.7 63.7 1371.2 63.8C1401.7 64 1432.3 73 1462.8 74.5C1493.3 76 1523.7 70 1554.2 66.5C1584.7 63 1615.3 62 1645.8 61.8C1676.3 61.7 1706.7 62.3 1737.2 61.8C1767.7 61.3 1798.3 59.7 1828.8 61.2C1859.3 62.7 1889.7 67.3 1904.8 69.7L1920 72L1920 0L1904.8 0C1889.7 0 1859.3 0 1828.8 0C1798.3 0 1767.7 0 1737.2 0C1706.7 0 1676.3 0 1645.8 0C1615.3 0 1584.7 0 1554.2 0C1523.7 0 1493.3 0 1462.8 0C1432.3 0 1401.7 0 1371.2 0C1340.7 0 1310.3 0 1280 0C1249.7 0 1219.3 0 1188.8 0C1158.3 0 1127.7 0 1097.2 0C1066.7 0 1036.3 0 1005.8 0C975.3 0 944.7 0 914.2 0C883.7 0 853.3 0 822.8 0C792.3 0 761.7 0 731.2 0C700.7 0 670.3 0 640 0C609.7 0 579.3 0 548.8 0C518.3 0 487.7 0 457.2 0C426.7 0 396.3 0 365.8 0C335.3 0 304.7 0 274.2 0C243.7 0 213.3 0 182.8 0C152.3 0 121.7 0 91.2 0C60.7 0 30.3 0 15.2 0L0 0Z" fill="#ffffff"></path><path d="M0 54L15.2 56.7C30.3 59.3 60.7 64.7 91.2 61.5C121.7 58.3 152.3 46.7 182.8 44.7C213.3 42.7 243.7 50.3 274.2 53.3C304.7 56.3 335.3 54.7 365.8 53C396.3 51.3 426.7 49.7 457.2 52.3C487.7 55 518.3 62 548.8 66.7C579.3 71.3 609.7 73.7 640 72.2C670.3 70.7 700.7 65.3 731.2 60.2C761.7 55 792.3 50 822.8 45C853.3 40 883.7 35 914.2 36.8C944.7 38.7 975.3 47.3 1005.8 48.2C1036.3 49 1066.7 42 1097.2 41.3C1127.7 40.7 1158.3 46.3 1188.8 51.7C1219.3 57 1249.7 62 1280 65.8C1310.3 69.7 1340.7 72.3 1371.2 72.2C1401.7 72 1432.3 69 1462.8 61.8C1493.3 54.7 1523.7 43.3 1554.2 39.3C1584.7 35.3 1615.3 38.7 1645.8 43.8C1676.3 49 1706.7 56 1737.2 59.8C1767.7 63.7 1798.3 64.3 1828.8 64.8C1859.3 65.3 1889.7 65.7 1904.8 65.8L1920 66L1920 0L1904.8 0C1889.7 0 1859.3 0 1828.8 0C1798.3 0 1767.7 0 1737.2 0C1706.7 0 1676.3 0 1645.8 0C1615.3 0 1584.7 0 1554.2 0C1523.7 0 1493.3 0 1462.8 0C1432.3 0 1401.7 0 1371.2 0C1340.7 0 1310.3 0 1280 0C1249.7 0 1219.3 0 1188.8 0C1158.3 0 1127.7 0 1097.2 0C1066.7 0 1036.3 0 1005.8 0C975.3 0 944.7 0 914.2 0C883.7 0 853.3 0 822.8 0C792.3 0 761.7 0 731.2 0C700.7 0 670.3 0 640 0C609.7 0 579.3 0 548.8 0C518.3 0 487.7 0 457.2 0C426.7 0 396.3 0 365.8 0C335.3 0 304.7 0 274.2 0C243.7 0 213.3 0 182.8 0C152.3 0 121.7 0 91.2 0C60.7 0 30.3 0 15.2 0L0 0Z" fill="#b9b9b9"></path><path d="M0 39L15.2 40.5C30.3 42 60.7 45 91.2 47.3C121.7 49.7 152.3 51.3 182.8 48.5C213.3 45.7 243.7 38.3 274.2 36.3C304.7 34.3 335.3 37.7 365.8 41.2C396.3 44.7 426.7 48.3 457.2 50.3C487.7 52.3 518.3 52.7 548.8 51.2C579.3 49.7 609.7 46.3 640 43.7C670.3 41 700.7 39 731.2 37.8C761.7 36.7 792.3 36.3 822.8 38.2C853.3 40 883.7 44 914.2 46.3C944.7 48.7 975.3 49.3 1005.8 48.5C1036.3 47.7 1066.7 45.3 1097.2 40.8C1127.7 36.3 1158.3 29.7 1188.8 27.3C1219.3 25 1249.7 27 1280 28C1310.3 29 1340.7 29 1371.2 31.7C1401.7 34.3 1432.3 39.7 1462.8 43.7C1493.3 47.7 1523.7 50.3 1554.2 50.8C1584.7 51.3 1615.3 49.7 1645.8 44.7C1676.3 39.7 1706.7 31.3 1737.2 30.3C1767.7 29.3 1798.3 35.7 1828.8 39.8C1859.3 44 1889.7 46 1904.8 47L1920 48L1920 0L1904.8 0C1889.7 0 1859.3 0 1828.8 0C1798.3 0 1767.7 0 1737.2 0C1706.7 0 1676.3 0 1645.8 0C1615.3 0 1584.7 0 1554.2 0C1523.7 0 1493.3 0 1462.8 0C1432.3 0 1401.7 0 1371.2 0C1340.7 0 1310.3 0 1280 0C1249.7 0 1219.3 0 1188.8 0C1158.3 0 1127.7 0 1097.2 0C1066.7 0 1036.3 0 1005.8 0C975.3 0 944.7 0 914.2 0C883.7 0 853.3 0 822.8 0C792.3 0 761.7 0 731.2 0C700.7 0 670.3 0 640 0C609.7 0 579.3 0 548.8 0C518.3 0 487.7 0 457.2 0C426.7 0 396.3 0 365.8 0C335.3 0 304.7 0 274.2 0C243.7 0 213.3 0 182.8 0C152.3 0 121.7 0 91.2 0C60.7 0 30.3 0 15.2 0L0 0Z" fill="#777777"></path><path d="M0 11L15.2 13.7C30.3 16.3 60.7 21.7 91.2 23.2C121.7 24.7 152.3 22.3 182.8 20C213.3 17.7 243.7 15.3 274.2 19.3C304.7 23.3 335.3 33.7 365.8 35.8C396.3 38 426.7 32 457.2 30.7C487.7 29.3 518.3 32.7 548.8 33.7C579.3 34.7 609.7 33.3 640 31.2C670.3 29 700.7 26 731.2 27.3C761.7 28.7 792.3 34.3 822.8 33.3C853.3 32.3 883.7 24.7 914.2 23.2C944.7 21.7 975.3 26.3 1005.8 31C1036.3 35.7 1066.7 40.3 1097.2 41C1127.7 41.7 1158.3 38.3 1188.8 34.5C1219.3 30.7 1249.7 26.3 1280 26.5C1310.3 26.7 1340.7 31.3 1371.2 30.5C1401.7 29.7 1432.3 23.3 1462.8 23.5C1493.3 23.7 1523.7 30.3 1554.2 33C1584.7 35.7 1615.3 34.3 1645.8 33.8C1676.3 33.3 1706.7 33.7 1737.2 30.2C1767.7 26.7 1798.3 19.3 1828.8 15.7C1859.3 12 1889.7 12 1904.8 12L1920 12L1920 0L1904.8 0C1889.7 0 1859.3 0 1828.8 0C1798.3 0 1767.7 0 1737.2 0C1706.7 0 1676.3 0 1645.8 0C1615.3 0 1584.7 0 1554.2 0C1523.7 0 1493.3 0 1462.8 0C1432.3 0 1401.7 0 1371.2 0C1340.7 0 1310.3 0 1280 0C1249.7 0 1219.3 0 1188.8 0C1158.3 0 1127.7 0 1097.2 0C1066.7 0 1036.3 0 1005.8 0C975.3 0 944.7 0 914.2 0C883.7 0 853.3 0 822.8 0C792.3 0 761.7 0 731.2 0C700.7 0 670.3 0 640 0C609.7 0 579.3 0 548.8 0C518.3 0 487.7 0 457.2 0C426.7 0 396.3 0 365.8 0C335.3 0 304.7 0 274.2 0C243.7 0 213.3 0 182.8 0C152.3 0 121.7 0 91.2 0C60.7 0 30.3 0 15.2 0L0 0Z" fill="#3b3b3b"></path><path d="M0 15L15.2 17C30.3 19 60.7 23 91.2 22.7C121.7 22.3 152.3 17.7 182.8 17C213.3 16.3 243.7 19.7 274.2 20.8C304.7 22 335.3 21 365.8 18.2C396.3 15.3 426.7 10.7 457.2 10.5C487.7 10.3 518.3 14.7 548.8 14.8C579.3 15 609.7 11 640 11.5C670.3 12 700.7 17 731.2 17.5C761.7 18 792.3 14 822.8 14.3C853.3 14.7 883.7 19.3 914.2 19.5C944.7 19.7 975.3 15.3 1005.8 14.7C1036.3 14 1066.7 17 1097.2 16.2C1127.7 15.3 1158.3 10.7 1188.8 8.2C1219.3 5.7 1249.7 5.3 1280 9C1310.3 12.7 1340.7 20.3 1371.2 20.2C1401.7 20 1432.3 12 1462.8 12.2C1493.3 12.3 1523.7 20.7 1554.2 24.2C1584.7 27.7 1615.3 26.3 1645.8 24.2C1676.3 22 1706.7 19 1737.2 18C1767.7 17 1798.3 18 1828.8 20C1859.3 22 1889.7 25 1904.8 26.5L1920 28L1920 0L1904.8 0C1889.7 0 1859.3 0 1828.8 0C1798.3 0 1767.7 0 1737.2 0C1706.7 0 1676.3 0 1645.8 0C1615.3 0 1584.7 0 1554.2 0C1523.7 0 1493.3 0 1462.8 0C1432.3 0 1401.7 0 1371.2 0C1340.7 0 1310.3 0 1280 0C1249.7 0 1219.3 0 1188.8 0C1158.3 0 1127.7 0 1097.2 0C1066.7 0 1036.3 0 1005.8 0C975.3 0 944.7 0 914.2 0C883.7 0 853.3 0 822.8 0C792.3 0 761.7 0 731.2 0C700.7 0 670.3 0 640 0C609.7 0 579.3 0 548.8 0C518.3 0 487.7 0 457.2 0C426.7 0 396.3 0 365.8 0C335.3 0 304.7 0 274.2 0C243.7 0 213.3 0 182.8 0C152.3 0 121.7 0 91.2 0C60.7 0 30.3 0 15.2 0L0 0Z" fill="#000000"></path></svg>